<svg width="60" height="40" viewBox="0 0 60 40" fill="none" xmlns="http://www.w3.org/2000/svg">
<path d="M57.2449 29.2301C56.9711 29.2301 56.7886 29.4187 56.7886 29.7016C56.7886 29.9844 56.9711 30.173 57.2449 30.173C57.5187 30.173 57.7012 29.9844 57.7012 29.7016C57.7012 29.4187 57.5187 29.2301 57.2449 29.2301Z" fill="white" fill-opacity="0.7"/>
<path d="M59.8461 11.4092L54.0506 6.34286V4.71452C54.0506 4.43165 53.8681 4.24308 53.5943 4.24308C53.3205 4.24308 53.138 4.43165 53.138 4.71452V6.38274L47.3881 11.4091C47.2512 11.5506 47.2056 11.7391 47.2512 11.9278C47.2969 12.1164 47.4794 12.2577 47.6619 12.2577H48.1183V13.6721C48.1183 13.955 48.3008 14.1435 48.5746 14.1435H49.0309V26.8728H48.5746C48.3464 26.8728 48.1639 27.0613 48.1183 27.2971L47.6619 32.0116C47.6619 32.153 47.7076 32.2945 47.7988 32.3888C47.8445 32.4831 47.9814 32.5302 48.1183 32.5302H59.0703C59.2072 32.5302 59.3441 32.4831 59.3898 32.3888C59.481 32.2945 59.5267 32.153 59.5267 32.0116L59.0703 27.2971C59.0247 27.0613 58.8422 26.8728 58.614 26.8728H58.1577V14.1436H58.614C58.8878 14.1436 59.0703 13.955 59.0703 13.6722V12.2578H59.5267C59.7092 12.2578 59.8918 12.1164 59.983 11.9278C60.0286 11.7392 59.983 11.5506 59.8461 11.4092ZM53.5942 7.21324L58.2489 11.3149H48.894L53.5942 7.21324ZM58.5684 31.5873H48.6202L48.9853 27.8157H49.4873H57.7013H58.2033L58.5684 31.5873ZM57.245 20.2725H56.3323C56.0585 20.2725 55.8759 20.461 55.8759 20.7439C55.8759 21.0268 56.0585 21.2153 56.3323 21.2153H57.245V26.8728H49.9436V25.4585H50.8563C51.1301 25.4585 51.3126 25.2699 51.3126 24.987C51.3126 24.7042 51.1301 24.5156 50.8563 24.5156H49.9436V16.5009H50.8563C51.1301 16.5009 51.3126 16.3123 51.3126 16.0294C51.3126 15.7466 51.1301 15.558 50.8563 15.558H49.9436V14.1437H57.245V20.2725ZM58.1577 13.2007H57.7013H49.4873H49.0309V12.2577H58.1577L58.1577 13.2007Z" fill="white" fill-opacity="0.7"/>
<path d="M55.4197 29.2301H52.6817C52.4079 29.2301 52.2253 29.4187 52.2253 29.7016C52.2253 29.9844 52.4079 30.173 52.6817 30.173H55.4197C55.6935 30.173 55.876 29.9844 55.876 29.7016C55.876 29.4187 55.6935 29.2301 55.4197 29.2301Z" fill="white" fill-opacity="0.7"/>
<path d="M50.8562 29.2301H49.9435C49.6697 29.2301 49.4872 29.4187 49.4872 29.7016C49.4872 29.9844 49.6697 30.173 49.9435 30.173H50.8562C51.13 30.173 51.3125 29.9844 51.3125 29.7016C51.3126 29.4187 51.13 29.2301 50.8562 29.2301Z" fill="white" fill-opacity="0.7"/>
<path d="M52.6815 19.801H54.5068C54.7806 19.801 54.9631 19.6125 54.9631 19.3296V16.9723C54.9631 16.1708 54.3699 15.558 53.5941 15.558C52.8183 15.558 52.2251 16.1708 52.2251 16.9723V19.3296C52.2251 19.6125 52.4077 19.801 52.6815 19.801ZM53.1378 16.9723C53.1378 16.6894 53.3203 16.5009 53.5941 16.5009C53.8679 16.5009 54.0504 16.6894 54.0504 16.9723V18.8581H53.1378V16.9723Z" fill="white" fill-opacity="0.7"/>
<path d="M52.6815 25.4585H54.5068C54.7806 25.4585 54.9631 25.2699 54.9631 24.987V22.6298C54.9631 21.8283 54.3699 21.2154 53.5941 21.2154C52.8183 21.2154 52.2251 21.8283 52.2251 22.6298V24.987C52.2251 25.2699 52.4077 25.4585 52.6815 25.4585ZM53.1378 22.6298C53.1378 22.3469 53.3203 22.1583 53.5941 22.1583C53.8679 22.1583 54.0504 22.3469 54.0504 22.6298V24.5156H53.1378V22.6298Z" fill="white" fill-opacity="0.7"/>
<path d="M43.8406 29.2301C43.5668 29.2301 43.3843 29.4187 43.3843 29.7016C43.3843 29.9844 43.5668 30.173 43.8406 30.173C44.1144 30.173 44.2969 29.9844 44.2969 29.7016C44.2969 29.4187 44.1144 29.2301 43.8406 29.2301Z" fill="white" fill-opacity="0.7"/>
<path d="M46.4418 11.4092L40.6463 6.34286V4.71452C40.6463 4.43165 40.4638 4.24308 40.19 4.24308C39.9162 4.24308 39.7337 4.43165 39.7337 4.71452V6.38274L33.9838 11.4091C33.8469 11.5506 33.8013 11.7391 33.8469 11.9278C33.8926 12.1164 34.0751 12.2577 34.2576 12.2577H34.714V13.6721C34.714 13.955 34.8965 14.1435 35.1703 14.1435H35.6266V26.8728H35.1703C34.9421 26.8728 34.7596 27.0613 34.714 27.2971L34.2576 32.0116C34.2576 32.153 34.3033 32.2945 34.3945 32.3888C34.4402 32.4831 34.5771 32.5302 34.714 32.5302H45.666C45.8029 32.5302 45.9398 32.4831 45.9855 32.3888C46.0767 32.2945 46.1224 32.153 46.1224 32.0116L45.666 27.2971C45.6204 27.0613 45.4379 26.8728 45.2097 26.8728H44.7534V14.1436H45.2097C45.4835 14.1436 45.666 13.955 45.666 13.6722V12.2578H46.1224C46.3049 12.2578 46.4875 12.1164 46.5787 11.9278C46.6243 11.7392 46.5787 11.5506 46.4418 11.4092ZM40.19 7.21324L44.8446 11.3149H35.4897L40.19 7.21324ZM45.1641 31.5873H35.2159L35.581 27.8157H36.083H44.297H44.799L45.1641 31.5873ZM43.8407 20.2725H42.928C42.6542 20.2725 42.4717 20.461 42.4717 20.7439C42.4717 21.0268 42.6542 21.2153 42.928 21.2153H43.8407V26.8728H36.5393V25.4585H37.452C37.7258 25.4585 37.9083 25.2699 37.9083 24.987C37.9083 24.7042 37.7258 24.5156 37.452 24.5156H36.5393V16.5009H37.452C37.7258 16.5009 37.9083 16.3123 37.9083 16.0294C37.9083 15.7466 37.7258 15.558 37.452 15.558H36.5393V14.1437H43.8407V20.2725ZM44.7534 13.2007H44.297H36.083H35.6267V12.2577H44.7534L44.7534 13.2007Z" fill="white" fill-opacity="0.7"/>
<path d="M42.0154 29.2301H39.2774C39.0036 29.2301 38.821 29.4187 38.821 29.7016C38.821 29.9844 39.0036 30.173 39.2774 30.173H42.0154C42.2892 30.173 42.4717 29.9844 42.4717 29.7016C42.4717 29.4187 42.2892 29.2301 42.0154 29.2301Z" fill="white" fill-opacity="0.7"/>
<path d="M37.4518 29.2301H36.5391C36.2653 29.2301 36.0828 29.4187 36.0828 29.7016C36.0828 29.9844 36.2653 30.173 36.5391 30.173H37.4518C37.7256 30.173 37.9081 29.9844 37.9081 29.7016C37.9081 29.4187 37.7256 29.2301 37.4518 29.2301Z" fill="white" fill-opacity="0.7"/>
<path d="M39.2773 19.801H41.1026C41.3764 19.801 41.5589 19.6125 41.5589 19.3296V16.9723C41.5589 16.1708 40.9657 15.558 40.1899 15.558C39.4141 15.558 38.8209 16.1708 38.8209 16.9723V19.3296C38.8209 19.6125 39.0035 19.801 39.2773 19.801ZM39.7336 16.9723C39.7336 16.6894 39.9161 16.5009 40.1899 16.5009C40.4637 16.5009 40.6463 16.6894 40.6463 16.9723V18.8581H39.7336V16.9723Z" fill="white" fill-opacity="0.7"/>
<path d="M39.2773 25.4585H41.1026C41.3764 25.4585 41.5589 25.2699 41.5589 24.987V22.6298C41.5589 21.8283 40.9657 21.2154 40.1899 21.2154C39.4141 21.2154 38.8209 21.8283 38.8209 22.6298V24.987C38.8209 25.2699 39.0035 25.4585 39.2773 25.4585ZM39.7336 22.6298C39.7336 22.3469 39.9161 22.1583 40.1899 22.1583C40.4637 22.1583 40.6463 22.3469 40.6463 22.6298V24.5156H39.7336V22.6298Z" fill="white" fill-opacity="0.7"/>
<g clip-path="url(#clip0_79_88)">
<path d="M12.4829 16.3342C12.9235 16.3275 13.2758 15.9263 13.2697 15.4381C13.2637 14.9499 12.9015 14.5597 12.4609 14.5664L12.4829 16.3342ZM10.1361 13.8078C10.5767 13.8011 10.929 13.3999 10.9229 12.9117C10.9169 12.4235 10.5547 12.0333 10.1141 12.04L10.1361 13.8078ZM12.5711 25.5823C13.0117 25.5756 13.364 25.1744 13.3579 24.6862C13.3519 24.198 12.9898 23.8078 12.5492 23.8145L12.5711 25.5823ZM10.2936 28.1791C10.7342 28.1725 11.0865 27.7713 11.0803 27.2831C11.0743 26.7949 10.7123 26.4047 10.2716 26.4114L10.2936 28.1791ZM13.164 23.2608C13.6046 23.2538 13.9567 22.8523 13.9504 22.3642C13.944 21.876 13.5817 21.4859 13.1411 21.493L13.164 23.2608ZM9.97836 21.5433C9.53775 21.5503 9.18568 21.9517 9.192 22.4399C9.19832 22.928 9.56064 23.3181 10.0013 23.3111L9.97836 21.5433ZM13.1015 18.6374C13.5421 18.6303 13.8941 18.229 13.8878 17.7408C13.8815 17.2527 13.5192 16.8626 13.0786 16.8697L13.1015 18.6374ZM9.89405 16.9203C9.45344 16.9274 9.10144 17.3287 9.10776 17.8169C9.11409 18.305 9.4764 18.6951 9.91701 18.6881L9.89405 16.9203ZM10.4501 20.9897C10.8909 20.988 11.2469 20.591 11.2454 20.1029C11.2441 19.6146 10.8857 19.2201 10.445 19.2218L10.4501 20.9897ZM7.90116 19.2308C7.46052 19.2324 7.10442 19.6295 7.10587 20.1177C7.10732 20.6059 7.46569 21.0004 7.90632 20.9988L7.90116 19.2308ZM12.4609 14.5664L9.91758 14.6051L9.93945 16.373L12.4829 16.3342L12.4609 14.5664ZM9.90485 13.8113L10.1361 13.8078L10.1141 12.04L9.88289 12.0435L9.90485 13.8113ZM9.55293 14.2126C9.54996 13.9938 9.70735 13.8143 9.90485 13.8113L9.88289 12.0435C8.80344 12.06 7.94117 13.0431 7.95729 14.2391L9.55293 14.2126ZM9.91758 14.6051C9.71924 14.6082 9.55583 14.4323 9.55293 14.2126L7.95729 14.2391C7.97347 15.4342 8.86076 16.3894 9.93945 16.373L9.91758 14.6051ZM12.5492 23.8145L10.0057 23.8533L10.0277 25.6211L12.5711 25.5823L12.5492 23.8145ZM10.0624 28.1827L10.2936 28.1791L10.2716 26.4114L10.0404 26.4149L10.0624 28.1827ZM8.08021 26.0488C8.09631 27.244 8.98361 28.1992 10.0624 28.1827L10.0404 26.4149C9.84215 26.4179 9.67873 26.242 9.67577 26.0223L8.08021 26.0488ZM10.0057 23.8533C8.92629 23.8697 8.06401 24.8529 8.08021 26.0488L9.67577 26.0223C9.67281 25.8035 9.8302 25.6241 10.0277 25.6211L10.0057 23.8533ZM13.1411 21.493L9.97836 21.5433L10.0013 23.3111L13.164 23.2608L13.1411 21.493ZM13.0786 16.8697L9.89405 16.9203L9.91701 18.6881L13.1015 18.6374L13.0786 16.8697ZM10.445 19.2218L7.90116 19.2308L7.90632 20.9988L10.4501 20.9897L10.445 19.2218Z" fill="white" fill-opacity="0.7"/>
<path d="M28.8576 14.3684C28.4484 14.1876 27.9842 14.4087 27.821 14.8622C27.6578 15.3156 27.8573 15.8298 28.2667 16.0107L28.8576 14.3684ZM15.5502 19.1266C15.1095 19.1329 14.7569 19.5338 14.7626 20.0219C14.7683 20.51 15.13 20.9008 15.5706 20.8944L15.5502 19.1266ZM18.2009 20.857C18.6415 20.8507 18.9941 20.4499 18.9884 19.9617C18.9828 19.4735 18.621 19.0828 18.1804 19.0892L18.2009 20.857ZM25.2901 15.8984C25.7308 15.8921 26.0833 15.4913 26.0776 15.0031C26.072 14.515 25.7102 14.1243 25.2696 14.1306L25.2901 15.8984ZM26.5919 23.8268L19.1266 23.9332L19.1472 25.701L26.6124 25.5946L26.5919 23.8268ZM16.3721 20.9678L16.3443 19.0252L14.7487 19.0533L14.7765 20.9958L16.3721 20.9678ZM29.6511 17.2855L30.02 17.6826L31.132 16.4147L30.7632 16.0176L29.6511 17.2855ZM30.0825 21.9272L29.7251 22.3348L30.8696 23.5668L31.227 23.1593L30.0825 21.9272ZM30.02 17.6826C30.6299 18.3392 31.0288 18.7712 31.2863 19.134C31.5297 19.4768 31.5692 19.6534 31.5711 19.785L33.1667 19.757C33.157 19.084 32.8938 18.5385 32.5406 18.041C32.2015 17.5634 31.7097 17.0365 31.132 16.4147L30.02 17.6826ZM31.227 23.1593C31.7864 22.5214 32.2633 21.9803 32.5889 21.4927C32.9285 20.9843 33.1763 20.4305 33.1667 19.757L31.5711 19.785C31.573 19.9161 31.5389 20.0926 31.3062 20.4412C31.0594 20.8107 30.6735 21.2534 30.0825 21.9272L31.227 23.1593ZM16.3443 19.0252C16.3308 18.0844 16.3236 17.4678 16.3725 17.0107C16.4187 16.5789 16.5031 16.4249 16.5848 16.3317L15.4403 15.0997C15.0166 15.5828 14.8549 16.1748 14.7878 16.8028C14.7234 17.4055 14.736 18.1625 14.7487 19.0533L16.3443 19.0252ZM14.7765 20.9958C14.7893 21.8866 14.7985 22.6437 14.88 23.2441C14.9652 23.8701 15.1436 24.4556 15.5794 24.9248L16.6915 23.6568C16.6055 23.5643 16.5165 23.4111 16.4581 22.9809C16.3961 22.5252 16.3855 21.9086 16.3721 20.9678L14.7765 20.9958ZM26.6124 25.5946C27.6222 25.5802 28.35 25.5856 29.0101 25.2712L28.3799 23.6469C28.0796 23.7899 27.7323 23.8106 26.5919 23.8268L26.6124 25.5946ZM29.7251 22.3348C28.9315 23.2397 28.6798 23.504 28.3799 23.6469L29.0101 25.2712C29.6704 24.9566 30.1669 24.368 30.8696 23.5668L29.7251 22.3348ZM30.7632 16.0176C30.0374 15.2363 29.5254 14.6634 28.8576 14.3684L28.2667 16.0107C28.572 16.1456 28.8322 16.404 29.6511 17.2855L30.7632 16.0176ZM15.5706 20.8944L18.2009 20.857L18.1804 19.0892L15.5502 19.1266L15.5706 20.8944ZM19.1266 23.9332C18.4723 23.9425 17.9863 23.949 17.5972 23.9236C17.2065 23.8982 16.9903 23.8438 16.8554 23.7773L16.2076 25.393C16.604 25.5881 17.0466 25.6588 17.5037 25.6885C17.9625 25.7184 18.5137 25.7101 19.1472 25.701L19.1266 23.9332ZM16.8554 23.7773C16.7863 23.7433 16.7358 23.7045 16.6915 23.6568L15.5794 24.9248C15.7656 25.1252 15.9754 25.2787 16.2076 25.393L16.8554 23.7773ZM18.9875 14.2201C18.3691 14.2289 17.8297 14.2362 17.3797 14.2762C16.9319 14.3161 16.5003 14.3932 16.1157 14.5821L16.7626 16.1983C16.9015 16.13 17.1211 16.0729 17.5076 16.0385C17.892 16.0043 18.3702 15.997 19.0081 15.9879L18.9875 14.2201ZM16.1157 14.5821C15.8637 14.706 15.6376 14.8747 15.4403 15.0997L16.5848 16.3317C16.6302 16.2799 16.6839 16.237 16.7626 16.1983L16.1157 14.5821ZM19.0081 15.9879L25.2901 15.8984L25.2696 14.1306L18.9875 14.2201L19.0081 15.9879Z" fill="white" fill-opacity="0.7"/>
<path d="M16.5409 12.907L17.3387 12.8943L17.3387 12.893L16.5409 12.907ZM21.8325 13.0188C21.9321 13.4944 22.3607 13.7904 22.7899 13.6802C23.2192 13.5699 23.4865 13.095 23.387 12.6194L21.8325 13.0188ZM15.4267 9.97523C15.6019 10.4232 16.0717 10.6289 16.476 10.4348C16.8803 10.2407 17.066 9.72015 16.8908 9.27221L15.4267 9.97523ZM15.7464 13.1693C15.7527 13.6575 16.115 14.0475 16.5557 14.0405C16.9963 14.0335 17.3483 13.6322 17.342 13.144L15.7464 13.1693ZM17.329 12.2135C17.322 11.7254 16.9591 11.3359 16.5185 11.3437C16.0779 11.3514 15.7264 11.7534 15.7335 12.2415L17.329 12.2135ZM23.387 12.6194L23.2341 11.8891L21.6796 12.2885L21.8325 13.0188L23.387 12.6194ZM23.2341 11.8891C23.0835 11.1699 22.9609 10.5814 22.8258 10.1068C22.6873 9.6203 22.5203 9.19468 22.2549 8.81032L20.9875 9.88454C21.0978 10.0442 21.1953 10.2568 21.304 10.6387C21.4161 11.0325 21.5235 11.5428 21.6796 12.2885L23.2341 11.8891ZM16.5904 8.93283C17.3099 8.92257 18.0781 8.91181 18.7389 8.93487C19.069 8.94639 19.3594 8.96599 19.5951 8.99598C19.8462 9.02794 19.978 9.0652 20.024 9.08543L20.6125 7.44211C20.3632 7.33251 20.0588 7.27544 19.7772 7.23959C19.48 7.20177 19.1409 7.18008 18.7892 7.1678C18.0862 7.14326 17.2806 7.1549 16.5699 7.16502L16.5904 8.93283ZM22.2549 8.81032C21.8334 8.19977 21.2638 7.72842 20.6125 7.44211L20.024 9.08543C20.4145 9.25712 20.7466 9.53566 20.9875 9.88454L22.2549 8.81032ZM15.2312 9.49258L15.3822 9.86473L16.8376 9.1398L16.6866 8.76765L15.2312 9.49258ZM15.3822 9.86473C15.4077 9.92759 15.4175 9.95169 15.4267 9.97523L16.8908 9.27221C16.8763 9.23518 16.8614 9.1985 16.8376 9.1398L15.3822 9.86473ZM16.5699 7.16502C15.4955 7.18031 14.7917 8.40957 15.2312 9.49258L16.6866 8.76765C16.7169 8.84232 16.668 8.93172 16.5904 8.93283L16.5699 7.16502ZM15.7432 12.9197L15.7464 13.1693L17.342 13.144L17.3387 12.8943L15.7432 12.9197ZM15.7335 12.2415L15.7432 12.921L17.3387 12.893L17.329 12.2135L15.7335 12.2415Z" fill="white" fill-opacity="0.7"/>
<path d="M16.5738 27.4172L15.776 27.4298C15.7762 27.4492 15.7771 27.4685 15.7784 27.4877L16.5738 27.4172ZM23.4636 27.3747C23.5495 26.8959 23.2689 26.4306 22.8367 26.3353C22.4046 26.2399 21.9844 26.5509 21.8985 27.0297L23.4636 27.3747ZM16.8322 31.534C17.0005 31.0829 16.8067 30.5659 16.3994 30.3795C15.9922 30.1931 15.5256 30.4079 15.3574 30.8591L16.8322 31.534ZM15.8287 28.1822C15.8638 28.6689 16.2484 29.0318 16.6877 28.9928C17.1269 28.9538 17.4545 28.5277 17.4194 28.0411L15.8287 28.1822ZM17.3664 27.0061C17.3601 26.5179 16.9978 26.1279 16.5572 26.1349C16.1165 26.1419 15.7645 26.5433 15.7708 27.0315L17.3664 27.0061ZM21.8985 27.0297L21.7666 27.764L23.3316 28.1091L23.4636 27.3747L21.8985 27.0297ZM16.7802 31.2584L16.6729 31.2599L16.6935 33.0276L16.8008 33.0262L16.7802 31.2584ZM21.7666 27.764C21.6319 28.514 21.5392 29.0269 21.4385 29.4236C21.3407 29.8083 21.2496 30.0228 21.1446 30.1846L22.4401 31.2167C22.695 30.824 22.8499 30.393 22.9745 29.9025C23.096 29.4241 23.2018 28.8323 23.3316 28.1091L21.7666 27.764ZM16.8008 33.0262C17.5115 33.016 18.3171 33.0047 19.0191 32.9601C19.3704 32.9379 19.7087 32.9065 20.0047 32.8602C20.2852 32.8164 20.5882 32.7505 20.8349 32.6337L20.207 31.0082C20.1622 31.0295 20.0319 31.0705 19.7817 31.1096C19.5471 31.1463 19.2575 31.1742 18.9278 31.1951C18.268 31.237 17.4998 31.2481 16.7802 31.2584L16.8008 33.0262ZM21.1446 30.1846C20.9146 30.5389 20.5917 30.8259 20.207 31.0082L20.8349 32.6337C21.4786 32.3284 22.0354 31.8403 22.4401 31.2167L21.1446 30.1846ZM17.4194 28.0411L17.3691 27.3466L15.7784 27.4877L15.8287 28.1822L17.4194 28.0411ZM16.6729 31.2599C16.7386 31.259 16.7912 31.2987 16.817 31.3402C16.843 31.3822 16.8607 31.4575 16.8322 31.534L15.3574 30.8591C14.9659 31.9091 15.6904 33.0419 16.6935 33.0276L16.6729 31.2599ZM17.3716 27.4044L17.3664 27.0061L15.7708 27.0315L15.776 27.4298L17.3716 27.4044Z" fill="white" fill-opacity="0.7"/>
<path d="M22.2959 20.3192C22.3029 20.8074 22.6658 21.1969 23.1064 21.1891C23.547 21.1814 23.8984 20.7793 23.8915 20.2912L22.2959 20.3192ZM24.8647 21.3389C24.4241 21.3452 24.0715 21.7461 24.0772 22.2342C24.0829 22.7224 24.4447 23.1131 24.8853 23.1068L24.8647 21.3389ZM27.3984 20.2412C27.3761 18.6813 26.2172 17.4337 24.8091 17.4537L24.8296 19.2215C25.3583 19.214 25.7945 19.6835 25.8029 20.2693L27.3984 20.2412ZM24.8091 17.4537C23.3991 17.4738 22.2736 18.7572 22.2959 20.3192L23.8915 20.2912C23.8831 19.7076 24.3028 19.2291 24.8296 19.2215L24.8091 17.4537ZM24.8853 23.1068C26.2953 23.0867 27.4208 21.8033 27.3984 20.2412L25.8029 20.2693C25.8113 20.853 25.3916 21.3315 24.8647 21.3389L24.8853 23.1068Z" fill="white" fill-opacity="0.7"/>
</g>
<defs>
<clipPath id="clip0_79_88">
<rect width="26.9052" height="26.9843" fill="white" transform="matrix(0.680584 0.73267 -0.659368 0.75182 17.7925 0)"/>
</clipPath>
</defs>
</svg>
