<svg width="40" height="40" viewBox="0 0 40 40" fill="none" xmlns="http://www.w3.org/2000/svg">
<path d="M24.7485 1.78711C21.6286 2.39102 19.423 3.62984 18.1031 5.34914L22.5317 7.90523C23.085 7.64227 23.6921 7.49211 24.3263 7.48281C24.6856 7.47766 25.0538 7.51773 25.4249 7.60742C25.7022 5.93148 25.4975 3.98383 24.7485 1.78711H24.7485ZM17.1582 6.4893L10.3637 18.252L17.6392 22.4561L19.3482 19.4971C18.5724 18.732 18.2482 17.5678 18.2081 16.3549C18.1589 14.8716 18.519 13.2223 19.1896 11.7309C19.6872 10.6241 20.3544 9.59859 21.1989 8.82312L17.1583 6.48922L17.1582 6.4893ZM33.2887 6.71875C30.9923 7.16328 29.1932 7.95273 27.876 9.02344C28.6049 9.78906 28.9933 10.7233 29.0699 11.682L33.4863 14.2309C34.3214 12.2248 34.3053 9.70047 33.2886 6.71875H33.2887ZM5.07565 7.34867L2.11174 12.4828L10.0805 15.8227L14.8316 7.59531L5.07581 7.34859L5.07565 7.34867ZM24.3432 8.90867C23.8326 8.91687 23.3596 9.08523 22.8929 9.36531C21.9599 9.92547 21.1057 11.0319 20.5224 12.3292C19.9391 13.6265 19.6256 15.1036 19.6654 16.3063C19.7053 17.5076 20.0813 18.3425 20.6664 18.6816C20.6671 18.682 20.6685 18.6813 20.669 18.6816C21.2552 19.0188 22.1651 18.9279 23.2251 18.3618C24.2864 17.7952 25.4087 16.7863 26.2403 15.6324C27.072 14.4785 27.6036 13.1832 27.6222 12.0949C27.6407 11.0064 27.2564 10.1229 26.0206 9.4093C25.4027 9.05242 24.8539 8.9007 24.3433 8.90875L24.3432 8.90867ZM28.9378 13.2935C28.688 14.4119 28.1334 15.5029 27.4242 16.4869C26.4682 17.8134 25.2226 18.9495 23.9135 19.6486C22.8401 20.2219 21.6639 20.5236 20.6104 20.2297L18.9038 23.1838L26.1791 27.3853L32.9688 15.6203L28.938 13.2936L28.9378 13.2935ZM33.1738 18.1861L28.4252 26.4162L35.3025 31.6505L38.2664 26.5138L33.1737 18.1862L33.1738 18.1861ZM11.5599 20.63C9.80393 21.3987 8.45604 22.4384 7.51198 23.7037L14.3479 27.6514C14.976 26.1998 15.2114 24.5188 15.012 22.6247L11.5599 20.6302L11.5599 20.63ZM6.86518 25.0172L1.42346 34.4359V37.3535L8.12995 25.747L6.86526 25.0171L6.86518 25.0172ZM20.1 25.5615C18.3438 26.3302 16.9965 27.3695 16.0524 28.6352L22.8883 32.5831C23.5166 31.1308 23.7521 29.4487 23.5524 27.5538L20.1 25.5616V25.5615ZM9.54612 26.5649L2.51487 38.6646H4.20393L10.8128 27.2974L9.54565 26.565L9.54612 26.5649ZM12.2365 28.1177L6.15995 38.6646H7.84432L13.4987 28.8477L12.2366 28.1177H12.2365ZM15.4274 29.9609L10.4883 38.6645H12.168L16.6919 30.6909L15.4273 29.9609H15.4274ZM18.1177 31.5161L14.1285 38.6645H15.7984L19.3823 32.2437L18.1176 31.516L18.1177 31.5161ZM20.8081 33.0688L17.7661 38.6646H19.4312L22.0752 33.799L20.808 33.0689L20.8081 33.0688Z" fill="white" fill-opacity="0.7"/>
</svg>
