<svg width="40" height="40" viewBox="0 0 40 40" fill="none" xmlns="http://www.w3.org/2000/svg">
<path d="M20 0C8.972 0 0 8.972 0 20C0 31.028 8.972 40 20 40C31.028 40 40 31.028 40 20C40 8.972 31.028 0 20 0ZM33.4907 28.6047C33.352 28.8213 33.208 29.034 33.0587 29.244C33.0373 29.274 33.0167 29.3047 32.9947 29.3347C32.852 29.5333 32.7033 29.7273 32.552 29.9193C32.522 29.9573 32.4933 29.996 32.4627 30.0333C32.3153 30.216 32.1627 30.394 32.0073 30.57C31.9713 30.6113 31.9367 30.6533 31.9 30.6947C31.71 30.906 31.5147 31.1133 31.3133 31.314C31.1113 31.5153 30.904 31.7113 30.692 31.902C30.6547 31.9353 30.616 31.9667 30.5787 32C30.3987 32.1587 30.216 32.3153 30.0293 32.466C29.9953 32.4933 29.9607 32.5193 29.9267 32.546C29.7313 32.7007 29.5327 32.852 29.33 32.998C29.3033 33.0173 29.276 33.036 29.2487 33.0553C29.0367 33.206 28.8213 33.352 28.602 33.492C28.5913 33.4987 28.5807 33.5053 28.57 33.512L23.2193 24.246C23.2327 24.236 23.244 24.2227 23.258 24.2127C23.6147 23.936 23.9347 23.616 24.2113 23.2593C24.222 23.246 24.2347 23.2347 24.2447 23.2207L33.5107 28.5713C33.5047 28.582 33.498 28.5933 33.4907 28.6047ZM6.51267 11.3907C6.64867 11.1787 6.79 10.9707 6.93533 10.7653C6.96 10.7307 6.984 10.6953 7.00933 10.6607C7.148 10.468 7.292 10.28 7.43933 10.0933C7.47333 10.05 7.50667 10.006 7.54133 9.96267C7.68333 9.78667 7.83067 9.61467 7.98067 9.44467C8.022 9.398 8.06133 9.34933 8.10267 9.30267C8.292 9.092 8.48667 8.886 8.68667 8.686C8.888 8.48467 9.09467 8.29 9.306 8.09933C9.34733 8.062 9.39 8.02733 9.43133 7.99067C9.60667 7.836 9.78467 7.68333 9.96667 7.53667C10.0047 7.506 10.044 7.47667 10.0827 7.446C10.274 7.29467 10.4687 7.146 10.6667 7.00333C10.6953 6.98267 10.7247 6.96267 10.754 6.942C10.9667 6.79133 11.182 6.64533 11.402 6.50467C11.4113 6.49867 11.42 6.49333 11.4293 6.48733L16.7793 15.7533C16.766 15.7633 16.7547 15.7767 16.7407 15.7867C16.384 16.0633 16.064 16.3833 15.7873 16.74C15.7767 16.7533 15.764 16.7647 15.754 16.7787L6.48867 11.4293C6.49667 11.4167 6.50467 11.404 6.51267 11.3907ZM24.212 16.7407C23.9353 16.384 23.6153 16.064 23.2587 15.7873C23.2453 15.7767 23.234 15.764 23.22 15.754L28.5647 6.49733C30.5493 7.76067 32.2387 9.45 33.502 11.4347L24.2453 16.7793C24.2353 16.766 24.2227 16.7547 24.212 16.7407ZM16.7793 24.246L11.434 33.5033C9.44933 32.24 7.76 30.5507 6.49667 28.566L15.754 23.2207C15.764 23.234 15.7773 23.2453 15.7873 23.2593C16.064 23.616 16.384 23.936 16.7407 24.2127C16.7547 24.2227 16.766 24.2353 16.7793 24.246ZM23.3333 20C23.3333 21.8387 21.8387 23.3333 20 23.3333C18.1613 23.3333 16.6667 21.8387 16.6667 20C16.6667 18.1613 18.1613 16.6667 20 16.6667C21.8387 16.6667 23.3333 18.1613 23.3333 20ZM22.068 15.0847C21.628 14.8987 21.1567 14.7747 20.6667 14.7133V4.01667C23.052 4.114 25.3453 4.734 27.4153 5.82267L22.068 15.0847ZM19.3333 14.7127C18.8427 14.774 18.3713 14.898 17.932 15.084L12.582 5.81733C14.6513 4.732 16.9453 4.114 19.3333 4.01667V14.7127ZM15.0847 17.932C14.8987 18.372 14.7747 18.8433 14.7133 19.3333H4.016C4.11333 16.9453 4.732 14.6513 5.818 12.582L15.0847 17.932ZM14.7127 20.6667C14.774 21.1567 14.898 21.628 15.084 22.068L5.822 27.416C4.734 25.3453 4.114 23.052 4.016 20.6667H14.7127ZM17.932 24.916C18.372 25.102 18.8433 25.226 19.3333 25.2873V35.984C16.948 35.8867 14.6547 35.2667 12.584 34.178L17.932 24.916ZM20.6667 25.2873C21.1573 25.226 21.6287 25.102 22.068 24.916L27.418 34.1827C25.3487 35.268 23.0547 35.8867 20.6667 35.984V25.2873ZM24.9153 22.068C25.1013 21.628 25.2253 21.1567 25.2867 20.6667H35.9833C35.886 23.0547 35.268 25.3487 34.182 27.4187L24.9153 22.068ZM25.2873 19.3333C25.226 18.8427 25.102 18.372 24.916 17.932L34.178 12.5847C35.266 14.6547 35.886 16.948 35.984 19.3333H25.2873Z" fill="white" fill-opacity="0.7"/>
</svg>
