<svg width="20.000000" height="20.000000" viewBox="0 0 20 20" fill="none" xmlns="http://www.w3.org/2000/svg" xmlns:xlink="http://www.w3.org/1999/xlink">
	<desc>
			Created with Pixso.
	</desc>
	<defs>
		<clipPath id="clip3_91">
			<rect id="zap" width="20.000000" height="20.000000" fill="white" fill-opacity="0"/>
		</clipPath>
	</defs>
	<rect id="zap" width="20.000000" height="20.000000" fill="#FFFFFF" fill-opacity="0"/>
	<g clip-path="url(#clip3_91)">
		<path id="Vector" d="M2.88 11.53C2.75 11.45 2.64 11.33 2.57 11.19C2.51 11.05 2.48 10.89 2.5 10.73C2.52 10.57 2.58 10.43 2.68 10.3L10.93 1.8C10.99 1.73 11.07 1.68 11.17 1.67C11.26 1.65 11.36 1.66 11.44 1.71C11.52 1.75 11.59 1.82 11.63 1.91C11.66 2 11.67 2.1 11.65 2.19L10.05 7.2C10 7.33 9.98 7.47 10 7.6C10.02 7.73 10.06 7.86 10.14 7.97C10.22 8.08 10.32 8.17 10.44 8.23C10.56 8.3 10.69 8.33 10.83 8.33L16.66 8.33C16.82 8.33 16.97 8.37 17.11 8.46C17.24 8.54 17.35 8.66 17.42 8.8C17.48 8.94 17.51 9.1 17.49 9.26C17.47 9.42 17.41 9.56 17.31 9.69L9.06 18.19C9 18.26 8.92 18.31 8.82 18.32C8.73 18.34 8.63 18.33 8.55 18.28C8.47 18.24 8.4 18.17 8.36 18.08C8.33 17.99 8.32 17.89 8.35 17.8L9.95 12.79C9.99 12.66 10.01 12.52 9.99 12.39C9.97 12.26 9.93 12.13 9.85 12.02C9.77 11.91 9.67 11.82 9.55 11.76C9.43 11.69 9.3 11.66 9.16 11.66L3.33 11.66C3.17 11.66 3.02 11.62 2.88 11.53Z" stroke="#AFAA24" stroke-opacity="1.000000" stroke-width="2.000000" stroke-linejoin="round"/>
	</g>
</svg>
