<svg width="40" height="41" viewBox="0 0 40 41" fill="none" xmlns="http://www.w3.org/2000/svg">
<path d="M37.6081 8.21027H30.0224C30.248 8.04763 30.4601 7.86375 30.6546 7.65698C31.4535 6.8111 31.8928 5.69804 31.8928 4.52038C31.8928 2.03435 29.921 0.0115662 27.4949 0.0115662C26.6649 0.0115662 25.9513 0.286111 25.6012 0.450405L25.5949 0.452822C24.5472 0.949774 21.8387 3.35659 20.0001 5.04747C18.1615 3.35659 15.453 0.949774 14.4044 0.452822L14.3988 0.450405C14.048 0.287001 13.3352 0.0115662 12.5051 0.0115662C10.0789 0.0115662 8.1063 2.03422 8.1063 4.52038C8.1063 5.69728 8.5456 6.8111 9.34455 7.65698C9.53995 7.86299 9.75197 8.04763 9.97677 8.21027H2.39203C1.07326 8.21027 0 9.31023 0 10.662V16.4114C0 17.7631 1.07326 18.8632 2.39203 18.8632H3.66056V37.6381C3.66056 39.3952 5.05587 40.8254 6.77015 40.8254H16.1793H17.774H22.2255H23.8202H33.231C34.9452 40.8254 36.339 39.3952 36.339 37.6381V18.8631H37.6083C38.9271 18.8631 40.0003 17.763 40.0003 16.4113V10.662C40 9.31023 38.9269 8.21027 37.6081 8.21027ZM26.5437 2.56131C26.8506 2.41825 27.2054 2.33331 27.4949 2.33331C28.671 2.33331 29.6285 3.31488 29.6285 4.52026C29.6285 5.70122 28.7299 6.65901 27.581 6.70555H21.593C23.6255 4.84071 25.885 2.87604 26.5437 2.56131ZM12.506 2.33331C12.7947 2.33331 13.1503 2.41825 13.4564 2.56131C14.1151 2.87591 16.3746 4.84058 18.4079 6.70555H12.4192C11.271 6.65901 10.3724 5.70109 10.3724 4.52026C10.3724 3.31488 11.3292 2.33331 12.506 2.33331ZM2.39203 17.2287C1.95186 17.2287 1.59469 16.8617 1.59469 16.4114V10.662C1.59469 10.2117 1.95186 9.8447 2.39203 9.8447H16.1793V17.2285H3.66056L2.39203 17.2287ZM16.1792 39.1907H6.7709C5.93535 39.1907 5.25599 38.4936 5.25599 37.6379V18.8631H16.1801V39.1907H16.1792ZM22.2254 39.1907H17.7739V18.8631V17.2285V9.8447H22.2254V17.2285V18.8631V39.1907ZM34.7441 37.6372C34.7441 38.4936 34.0648 39.19 33.2308 39.19H23.82V18.8631H34.7441V37.6372ZM38.4054 16.4114C38.4054 16.8617 38.0474 17.2287 37.6081 17.2287H36.3387H23.82V9.8447H37.6081C38.0474 9.8447 38.4054 10.2117 38.4054 10.662V16.4114Z" fill="white"/>
</svg>
