<svg width="45" height="44" viewBox="0 0 45 44" fill="none" xmlns="http://www.w3.org/2000/svg">
<path d="M17.6376 10.1304C18.1255 10.6188 18.917 10.6193 19.4055 10.1314C19.894 9.64357 19.8943 8.85212 19.4065 8.36367L17.6376 10.1304ZM17.6376 5.00387C18.1255 5.49232 18.917 5.4928 19.4055 5.00495C19.894 4.51709 19.8943 3.72564 19.4065 3.23719L17.6376 5.00387ZM8.35497 19.3428C8.8428 19.8313 9.6343 19.8318 10.1228 19.3438C10.6113 18.856 10.6116 18.0647 10.1238 17.5762L8.35497 19.3428ZM3.2348 19.3428C3.72264 19.8313 4.51413 19.8318 5.00247 19.3438C5.49097 18.856 5.49147 18.0647 5.00363 17.5762L3.2348 19.3428ZM11.3566 17.7213C11.8448 18.2095 12.6363 18.2095 13.1245 17.7213C13.6126 17.2332 13.6126 16.4416 13.1245 15.9535L11.3566 17.7213ZM9.62047 12.4495C9.1323 11.9613 8.3408 11.9613 7.85264 12.4495C7.36447 12.9376 7.36447 13.7291 7.85264 14.2172L9.62047 12.4495ZM15.9773 13.0951C16.4655 13.5832 17.2568 13.5832 17.745 13.0951C18.2331 12.6069 18.2331 11.8155 17.745 11.3273L15.9773 13.0951ZM14.2168 7.79914C13.7286 7.31099 12.9373 7.31099 12.4491 7.79914C11.961 8.2873 11.961 9.07875 12.4491 9.5669L14.2168 7.79914ZM10.697 12.434C11.1798 12.9276 11.9711 12.9364 12.4646 12.4537C12.9583 11.971 12.9671 11.1796 12.4843 10.6861L10.697 12.434ZM9.6978 7.83677C9.21514 7.3432 8.42364 7.3344 7.93014 7.8171C7.43664 8.29979 7.4278 9.0912 7.91047 9.58475L9.6978 7.83677ZM19.4065 8.36367L16.5905 5.5441L14.8215 7.31078L17.6376 10.1304L19.4065 8.36367ZM17.3816 4.74755L17.6376 5.00387L19.4065 3.23719L19.1505 2.98085L17.3816 4.74755ZM16.5905 4.74755C16.8091 4.5286 17.163 4.5286 17.3816 4.74755L19.1505 2.98085C17.9553 1.78417 16.0168 1.78417 14.8215 2.98085L16.5905 4.74755ZM16.5905 5.5441C16.3708 5.3243 16.3708 4.96734 16.5905 4.74755L14.8215 2.98085C13.6271 4.1767 13.6271 6.11494 14.8215 7.31078L16.5905 5.5441ZM10.1238 17.5762L7.30764 14.7566L5.5388 16.5233L8.35497 19.3428L10.1238 17.5762ZM2.9788 19.0865L3.2348 19.3428L5.00363 17.5762L4.74764 17.3198L2.9788 19.0865ZM2.9788 14.7566C1.7843 15.9524 1.7843 17.8907 2.9788 19.0865L4.74764 17.3198C4.52814 17.1 4.52814 16.743 4.74764 16.5233L2.9788 14.7566ZM7.30764 14.7566C6.11247 13.5599 4.17397 13.5599 2.9788 14.7566L4.74764 16.5233C4.9663 16.3043 5.32013 16.3043 5.5388 16.5233L7.30764 14.7566ZM13.1245 15.9535L9.62047 12.4495L7.85264 14.2172L11.3566 17.7213L13.1245 15.9535ZM17.745 11.3273L14.2168 7.79914L12.4491 9.5669L15.9773 13.0951L17.745 11.3273ZM12.4843 10.6861L9.6978 7.83677L7.91047 9.58475L10.697 12.434L12.4843 10.6861Z" fill="white" fill-opacity="0.7"/>
<path d="M37.5088 26.5918C37.2453 25.9538 36.5144 25.6502 35.8763 25.9137C35.2382 26.1772 34.9346 26.908 35.1981 27.5462L37.5088 26.5918ZM18.1545 16.3284C17.667 15.8396 16.8755 15.8384 16.3867 16.3258C15.8978 16.8132 15.8965 17.6047 16.384 18.0935L18.1545 16.3284ZM19.2937 21.012C19.781 21.5008 20.5725 21.502 21.0613 21.0145C21.5503 20.5272 21.5515 19.7357 21.064 19.2468L19.2937 21.012ZM32.0622 24.091C32.5497 24.58 33.3411 24.5812 33.83 24.0937C34.3189 23.6063 34.3201 22.8148 33.8327 22.326L32.0622 24.091ZM25.4428 33.3667L17.1845 25.0835L15.4142 26.8487L23.6723 35.1317L25.4428 33.3667ZM17.1845 19.0663L19.1243 17.1208L17.3538 15.3557L15.4142 17.3012L17.1845 19.0663ZM35.4167 30.358V31.1638H37.9167V30.358H35.4167ZM31.1802 35.4168H30.3768V37.9168H31.1802V35.4168ZM35.4167 31.1638C35.4167 32.4962 35.414 33.37 35.3273 34.0168C35.2454 34.6282 35.1094 34.8465 34.978 34.9783L36.7484 36.7435C37.4204 36.0695 37.6862 35.2362 37.8052 34.349C37.9193 33.4975 37.9167 32.4257 37.9167 31.1638H35.4167ZM31.1802 37.9168C32.438 37.9168 33.5074 37.9195 34.3574 37.8048C35.2437 37.6853 36.0759 37.418 36.7484 36.7435L34.978 34.9783C34.8471 35.1097 34.631 35.2453 34.0232 35.3273C33.3792 35.4142 32.5089 35.4168 31.1802 35.4168V37.9168ZM19.1243 17.1208C20.0637 16.1786 20.6812 15.5629 21.1982 15.1673C21.6865 14.7936 21.9348 14.7367 22.1185 14.7367V12.2367C21.166 12.2367 20.389 12.6384 19.6788 13.1819C18.9973 13.7035 18.2433 14.4636 17.3538 15.3557L19.1243 17.1208ZM15.4142 17.3012C14.5247 18.1933 13.767 18.9497 13.247 19.633C12.7052 20.3455 12.3062 21.123 12.3062 22.075H14.8062C14.8062 21.8872 14.8643 21.6363 15.2368 21.1467C15.6313 20.628 16.2452 20.0085 17.1845 19.0663L15.4142 17.3012ZM23.6723 35.1317C24.7894 36.2522 25.5786 37.0752 26.6181 37.507L27.5773 35.1983C27.1045 35.0018 26.7043 34.632 25.4428 33.3667L23.6723 35.1317ZM30.3768 35.4168C28.5926 35.4168 28.0497 35.3945 27.5773 35.1983L26.6181 37.507C27.6581 37.939 28.7971 37.9168 30.3768 37.9168V35.4168ZM37.9167 30.358C37.9167 28.7727 37.9387 27.6328 37.5088 26.5918L35.1981 27.5462C35.3947 28.0222 35.4167 28.5692 35.4167 30.358H37.9167ZM16.384 18.0935L19.2937 21.012L21.064 19.2468L18.1545 16.3284L16.384 18.0935ZM17.1845 25.0835C16.4607 24.3575 15.9235 23.8178 15.5245 23.3557C15.1237 22.8915 14.9428 22.595 14.863 22.378L12.5172 23.2422C12.752 23.8798 13.1635 24.4468 13.6325 24.9897C14.1032 25.5347 14.7133 26.1458 15.4142 26.8487L17.1845 25.0835ZM14.863 22.378C14.822 22.2668 14.8062 22.1718 14.8062 22.075H12.3062C12.3062 22.4817 12.3795 22.8687 12.5172 23.2422L14.863 22.378ZM26.8833 15.3557C26.1992 14.6695 25.6029 14.0706 25.071 13.6044C24.5416 13.1406 23.9923 12.7315 23.3808 12.4856L22.448 14.8051C22.6688 14.8939 22.9665 15.0843 23.4234 15.4847C23.8778 15.8829 24.4072 16.413 25.1129 17.1208L26.8833 15.3557ZM23.3808 12.4856C22.98 12.3245 22.562 12.2367 22.1185 12.2367V14.7367C22.2207 14.7367 22.3228 14.7548 22.448 14.8051L23.3808 12.4856ZM25.1129 17.1208L32.0622 24.091L33.8327 22.326L26.8833 15.3557L25.1129 17.1208Z" fill="white" fill-opacity="0.7"/>
<path d="M25.5439 11.3127L26.4277 12.1966L26.4291 12.1953L25.5439 11.3127ZM31.2077 17.3685C30.834 17.949 31.0017 18.7223 31.5823 19.096C32.1628 19.4697 32.9363 19.302 33.3099 18.7215L31.2077 17.3685ZM27.3006 7.17167C27.0376 7.80997 27.3419 8.5406 27.9802 8.80359C28.6185 9.06657 29.3491 8.76232 29.6121 8.12402L27.3006 7.17167ZM24.4104 10.6785C23.9222 11.1667 23.9222 11.9581 24.4104 12.4463C24.8985 12.9344 25.6899 12.9344 26.1781 12.4463L24.4104 10.6785ZM27.1075 11.5147C27.595 11.0259 27.5938 10.2344 27.1049 9.74699C26.616 9.25955 25.8245 9.26075 25.3372 9.74964L27.1075 11.5147ZM33.3099 18.7215L33.8836 17.83L31.7814 16.477L31.2077 17.3685L33.3099 18.7215ZM33.8836 17.83C34.4486 16.9522 34.9115 16.2345 35.2453 15.615C35.5876 14.98 35.8369 14.373 35.9369 13.696L33.4638 13.3305C33.4223 13.6116 33.3131 13.9307 33.0445 14.4292C32.7675 14.9433 32.3672 15.5668 31.7814 16.477L33.8836 17.83ZM29.6283 7.452C30.4243 8.2504 31.2739 9.10289 31.9719 9.86812C32.3207 10.2504 32.6178 10.596 32.8447 10.8903C33.0864 11.204 33.1925 11.3888 33.2222 11.4604L35.5314 10.5023C35.3703 10.1141 35.0959 9.7159 34.8247 9.3641C34.5387 8.99295 34.1905 8.5906 33.8189 8.18324C33.0762 7.36917 32.185 6.47552 31.3987 5.68692L29.6283 7.452ZM35.9369 13.696C36.0959 12.6206 35.9521 11.5162 35.5314 10.5023L33.2222 11.4604C33.4745 12.0684 33.5546 12.716 33.4638 13.3305L35.9369 13.696ZM27.5767 6.4764L27.3641 7.0128L29.6883 7.93375L29.9009 7.39735L27.5767 6.4764ZM27.3641 7.0128C27.3282 7.1034 27.3144 7.13812 27.3006 7.17167L29.6121 8.12402C29.6339 8.07125 29.6548 8.01837 29.6883 7.93375L27.3641 7.0128ZM31.3987 5.68692C30.2103 4.49484 28.1952 4.91539 27.5767 6.4764L29.9009 7.39735C29.8582 7.50499 29.7142 7.53815 29.6283 7.452L31.3987 5.68692ZM24.66 10.4288L24.4104 10.6785L26.1781 12.4463L26.4277 12.1966L24.66 10.4288ZM25.3372 9.74964L24.6587 10.4302L26.4291 12.1953L27.1075 11.5147L25.3372 9.74964Z" fill="white" fill-opacity="0.7"/>
<path d="M10.8641 25.6485L9.98028 24.7645C9.96095 24.7838 9.94228 24.8038 9.92428 24.8243L10.8641 25.6485ZM18.4293 33.348C19.0088 32.9726 19.1743 32.1988 18.7991 31.6193C18.4239 31.0398 17.6499 30.8741 17.0704 31.2495L18.4293 33.348ZM6.97128 29.9956C7.61245 29.7401 7.92511 29.013 7.66945 28.3716C7.41395 27.7305 6.68678 27.4178 6.04545 27.6735L6.97128 29.9956ZM9.27478 25.5651C8.81961 26.0841 8.87145 26.874 9.39061 27.3291C9.90961 27.7841 10.6994 27.7323 11.1546 27.2133L9.27478 25.5651ZM12.1464 26.134C12.6346 25.6458 12.6346 24.8543 12.1464 24.3661C11.6583 23.878 10.8668 23.878 10.3786 24.3661L12.1464 26.134ZM17.0704 31.2495L16.1818 31.8248L17.5404 33.9233L18.4293 33.348L17.0704 31.2495ZM7.19395 29.6656L7.07528 29.5465L5.30495 31.3116L5.42361 31.4308L7.19395 29.6656ZM16.1818 31.8248C15.2741 32.4125 14.6528 32.8138 14.1404 33.0916C13.6436 33.3608 13.3266 33.4698 13.0479 33.5113L13.4156 35.984C14.0921 35.8835 14.6983 35.6328 15.3318 35.2895C15.9496 34.9545 16.6653 34.4901 17.5404 33.9233L16.1818 31.8248ZM5.42361 31.4308C6.20978 32.2193 7.10078 33.1133 7.91245 33.8581C8.31861 34.231 8.71978 34.5801 9.08995 34.8671C9.44061 35.1391 9.83811 35.4146 10.2259 35.5766L11.1889 33.2695C11.1184 33.2401 10.9346 33.1341 10.6218 32.8915C10.3284 32.664 9.98395 32.3661 9.60278 32.0163C8.83995 31.3161 7.98995 30.464 7.19395 29.6656L5.42361 31.4308ZM13.0479 33.5113C12.4374 33.602 11.7938 33.522 11.1889 33.2695L10.2259 35.5766C11.2383 35.9991 12.3413 36.1438 13.4156 35.984L13.0479 33.5113ZM11.1546 27.2133L11.8041 26.4725L9.92428 24.8243L9.27478 25.5651L11.1546 27.2133ZM7.07528 29.5465C7.14795 29.6195 7.16511 29.7176 7.15111 29.7876C7.13695 29.8581 7.07995 29.9523 6.97128 29.9956L6.04545 27.6735C4.55328 28.2683 4.19528 30.1986 5.30495 31.3116L7.07528 29.5465ZM11.7481 26.5323L12.1464 26.134L10.3786 24.3661L9.98028 24.7645L11.7481 26.5323Z" fill="white" fill-opacity="0.7"/>
<path d="M24.3098 25.0832C23.8223 25.5722 23.8235 26.3637 24.3124 26.851C24.8013 27.3385 25.5928 27.3372 26.0802 26.8483L24.3098 25.0832ZM26.0802 28.9743C25.5928 28.4855 24.8013 28.4843 24.3124 28.9717C23.8235 29.4592 23.8223 30.2507 24.3098 30.7395L26.0802 28.9743ZM29.9597 30.7395C31.5174 29.1772 31.5174 26.6457 29.9597 25.0832L28.1893 26.8483C28.7742 27.435 28.7742 28.3877 28.1893 28.9743L29.9597 30.7395ZM29.9597 25.0832C28.3999 23.5188 25.8695 23.5188 24.3098 25.0832L26.0802 26.8483C26.663 26.2638 27.6064 26.2638 28.1893 26.8483L29.9597 25.0832ZM24.3098 30.7395C25.8695 32.304 28.3999 32.304 29.9597 30.7395L28.1893 28.9743C27.6064 29.559 26.663 29.559 26.0802 28.9743L24.3098 30.7395Z" fill="white" fill-opacity="0.7"/>
<rect x="2" y="43" width="43" height="1" fill="white" fill-opacity="0.7"/>
</svg>
