<svg width="48" height="60" viewBox="0 0 48 60" fill="none" xmlns="http://www.w3.org/2000/svg">
<path d="M8 44H40C41.0605 43.9988 42.0772 43.577 42.8271 42.8271C43.577 42.0772 43.9988 41.0605 44 40V8C43.9988 6.93951 43.577 5.92279 42.8271 5.17291C42.0772 4.42303 41.0605 4.00121 40 4H8C6.93951 4.00121 5.92279 4.42303 5.17291 5.17291C4.42303 5.92279 4.00121 6.93951 4 8V40C4.00121 41.0605 4.42303 42.0772 5.17291 42.8271C5.9228 43.577 6.93951 43.9988 8 44ZM8 8H17V11H19V8H29V11H31V8H40V40H31V37H29V40H19V37H17V40H8V8Z" fill="white" fill-opacity="0.7"/>
<path d="M19 13H17V19H19V13Z" fill="white" fill-opacity="0.7"/>
<path d="M19 21H17V27H19V21Z" fill="white" fill-opacity="0.7"/>
<path d="M19 29H17V35H19V29Z" fill="white" fill-opacity="0.7"/>
<path d="M31 13H29V19H31V13Z" fill="white" fill-opacity="0.7"/>
<path d="M31 21H29V27H31V21Z" fill="white" fill-opacity="0.7"/>
<path d="M31 29H29V35H31V29Z" fill="white" fill-opacity="0.7"/>
<path d="M13.4142 15.6142C13.7893 15.2391 14 14.7304 14 14.2C14 13.6696 13.7893 13.1609 13.4143 12.7858C13.1346 12.5061 12.7781 12.3156 12.3902 12.2384C12.0022 12.1613 11.6001 12.2009 11.2346 12.3523C10.8692 12.5036 10.5568 12.76 10.3371 13.0889C10.1173 13.4178 10 13.8045 10 14.2C10 14.5956 10.1173 14.9823 10.3371 15.3112C10.5568 15.6401 10.8692 15.8964 11.2346 16.0478C11.6001 16.1991 12.0022 16.2388 12.3902 16.1616C12.7781 16.0844 13.1345 15.8939 13.4142 15.6142Z" fill="white" fill-opacity="0.7"/>
<path d="M11.9999 21.1715L9.17151 24L11.9999 26.8284L14.8284 24L11.9999 21.1715Z" fill="white" fill-opacity="0.7"/>
<path d="M24.0001 11.3716L21.1716 14.2L24.0001 17.0284L26.8285 14.2L24.0001 11.3716Z" fill="white" fill-opacity="0.7"/>
<path d="M25.4142 25.4142C25.7893 25.0391 26 24.5304 26 24C26 23.4696 25.7893 22.9609 25.4143 22.5858C25.1346 22.3061 24.7781 22.1156 24.3902 22.0384C24.0022 21.9613 23.6001 22.0009 23.2346 22.1522C22.8692 22.3036 22.5568 22.56 22.3371 22.8889C22.1173 23.2178 22 23.6044 22 24C22 24.3956 22.1173 24.7822 22.3371 25.1111C22.5568 25.44 22.8692 25.6964 23.2346 25.8478C23.6001 25.9991 24.0022 26.0387 24.3902 25.9616C24.7781 25.8844 25.1345 25.6939 25.4142 25.4142Z" fill="white" fill-opacity="0.7"/>
<path d="M37.4142 15.6142C37.7893 15.2391 38 14.7304 38 14.2C38 13.6696 37.7893 13.1609 37.4143 12.7858C37.1346 12.5061 36.7781 12.3156 36.3902 12.2384C36.0022 12.1613 35.6001 12.2009 35.2346 12.3523C34.8692 12.5036 34.5568 12.76 34.3371 13.0889C34.1173 13.4178 34 13.8045 34 14.2C34 14.5956 34.1173 14.9823 34.3371 15.3112C34.5568 15.6401 34.8692 15.8964 35.2346 16.0478C35.6001 16.1991 36.0022 16.2388 36.3902 16.1616C36.7781 16.0844 37.1345 15.8939 37.4142 15.6142Z" fill="white" fill-opacity="0.7"/>
<path d="M36.0001 30.9716L33.1716 33.8L36.0001 36.6284L38.8285 33.8L36.0001 30.9716Z" fill="white" fill-opacity="0.7"/>
<path d="M12.1442 31.7634L12.0001 31.9071L11.856 31.7634C11.7121 31.6195 11.5412 31.5054 11.3532 31.4275C11.1652 31.3496 10.9637 31.3095 10.7603 31.3095C10.5568 31.3095 10.3553 31.3496 10.1673 31.4275C9.97926 31.5054 9.80844 31.6195 9.66455 31.7634C9.52066 31.9073 9.40652 32.0781 9.32865 32.2661C9.25077 32.4541 9.21069 32.6556 9.21069 32.8591C9.21069 33.0626 9.25077 33.2641 9.32865 33.4521C9.40652 33.6401 9.52066 33.8109 9.66455 33.9548L12.0001 36.2906L14.3356 33.9548C14.4799 33.811 14.5945 33.6402 14.6727 33.4521C14.7509 33.2639 14.7913 33.0622 14.7915 32.8585C14.7916 32.6548 14.7517 32.453 14.6738 32.2647C14.5959 32.0765 14.4817 31.9054 14.3376 31.7614C14.1935 31.6173 14.0225 31.5031 13.8342 31.4252C13.646 31.3473 13.4442 31.3073 13.2405 31.3075C13.0367 31.3077 12.835 31.3481 12.6469 31.4263C12.4588 31.5045 12.288 31.6191 12.1442 31.7634Z" fill="white" fill-opacity="0.7"/>
<path d="M24.1442 31.7634L24.0001 31.9071L23.856 31.7634C23.7121 31.6195 23.5412 31.5054 23.3532 31.4275C23.1652 31.3496 22.9637 31.3095 22.7603 31.3095C22.5568 31.3095 22.3553 31.3496 22.1673 31.4275C21.9793 31.5054 21.8084 31.6195 21.6645 31.7634C21.5207 31.9073 21.4065 32.0781 21.3286 32.2661C21.2508 32.4541 21.2107 32.6556 21.2107 32.8591C21.2107 33.0626 21.2508 33.2641 21.3286 33.4521C21.4065 33.6401 21.5207 33.8109 21.6645 33.9548L24.0001 36.2906L26.3356 33.9548C26.6253 33.664 26.7878 33.2702 26.7874 32.8597C26.787 32.4492 26.6238 32.0557 26.3335 31.7654C26.0433 31.4752 25.6497 31.312 25.2393 31.3116C24.8288 31.3112 24.435 31.4737 24.1442 31.7634Z" fill="white" fill-opacity="0.7"/>
<path d="M36 26.4906L38.3355 24.1548C38.6249 23.864 38.7871 23.4702 38.7866 23.0599C38.7861 22.6496 38.6229 22.2563 38.3328 21.9662C38.0426 21.676 37.6493 21.5128 37.239 21.5123C36.8287 21.5118 36.435 21.674 36.1441 21.9634L36 22.1071L35.8559 21.9634C35.7121 21.8191 35.5412 21.7047 35.3531 21.6266C35.165 21.5484 34.9634 21.5081 34.7597 21.508C34.5561 21.5079 34.3544 21.5479 34.1662 21.6258C33.978 21.7036 33.807 21.8179 33.663 21.9619C33.5189 22.1059 33.4047 22.2769 33.3269 22.4651C33.249 22.6533 33.209 22.855 33.2091 23.0587C33.2092 23.2623 33.2495 23.464 33.3277 23.6521C33.4058 23.8402 33.5203 24.011 33.6645 24.1548L36 26.4906Z" fill="white" fill-opacity="0.7"/>
</svg>
