<svg width="20" height="40" viewBox="0 0 20 40" fill="none" xmlns="http://www.w3.org/2000/svg">
<path d="M15.6835 35.3334C15.2546 35.3334 14.9686 35.6 14.9686 36C14.9686 36.4 15.2546 36.6666 15.6835 36.6666C16.1125 36.6666 16.3984 36.4 16.3984 36C16.3984 35.6 16.1125 35.3334 15.6835 35.3334Z" fill="white" fill-opacity="0.7"/>
<path d="M19.7587 10.1334L10.6792 2.96922V0.666641C10.6792 0.266641 10.3932 0 9.96427 0C9.53531 0 9.24937 0.266641 9.24937 0.666641V3.02563L0.241276 10.1333C0.0267978 10.3333 -0.0446668 10.5999 0.026798 10.8666C0.0982629 11.1334 0.384291 11.3333 0.670234 11.3333H1.38513V13.3333C1.38513 13.7333 1.67108 13.9999 2.10003 13.9999H2.81493V31.9999H2.10003C1.74254 31.9999 1.4566 32.2666 1.38513 32.5999L0.670234 39.2666C0.670234 39.4666 0.741698 39.6666 0.884712 39.7999C0.956177 39.9333 1.17065 39.9999 1.38513 39.9999H18.5434C18.7579 39.9999 18.9724 39.9333 19.0438 39.7999C19.1868 39.6666 19.2583 39.4666 19.2583 39.2666L18.5434 32.5999C18.4719 32.2666 18.1859 31.9999 17.8285 31.9999H17.1136V14H17.8285C18.2575 14 18.5434 13.7334 18.5434 13.3334V11.3334H19.2583C19.5442 11.3334 19.8303 11.1334 19.9732 10.8667C20.0447 10.6 19.9732 10.3334 19.7587 10.1334ZM9.96418 4.2L17.2564 10H2.60045L9.96418 4.2ZM17.757 38.6666H2.1715L2.74347 33.3333H3.52992H16.3986H17.1851L17.757 38.6666ZM15.6836 22.6666H14.2538C13.8248 22.6666 13.5388 22.9333 13.5388 23.3333C13.5388 23.7333 13.8248 23.9999 14.2538 23.9999H15.6836V31.9999H4.24482V30H5.6747C6.10366 30 6.3896 29.7334 6.3896 29.3334C6.3896 28.9334 6.10366 28.6667 5.6747 28.6667H4.24482V17.3334H5.6747C6.10366 17.3334 6.3896 17.0667 6.3896 16.6667C6.3896 16.2667 6.10366 16.0001 5.6747 16.0001H4.24482V14.0001H15.6836V22.6666ZM17.1135 12.6666H16.3986H3.52992H2.81502V11.3333H17.1136L17.1135 12.6666Z" fill="white" fill-opacity="0.7"/>
<path d="M12.8242 35.3334H8.5346C8.10565 35.3334 7.8197 35.6 7.8197 36C7.8197 36.4 8.10565 36.6666 8.5346 36.6666H12.8242C13.2531 36.6666 13.5391 36.4 13.5391 36C13.5391 35.6 13.2531 35.3334 12.8242 35.3334Z" fill="white" fill-opacity="0.7"/>
<path d="M5.67457 35.3334H4.24469C3.81573 35.3334 3.52979 35.6 3.52979 36C3.52979 36.4 3.81573 36.6666 4.24469 36.6666H5.67457C6.10353 36.6666 6.38947 36.4 6.38947 36C6.38955 35.6 6.10353 35.3334 5.67457 35.3334Z" fill="white" fill-opacity="0.7"/>
<path d="M8.53444 22H11.3941C11.8231 22 12.109 21.7334 12.109 21.3334V18C12.109 16.8666 11.1796 16 9.96424 16C8.74884 16 7.81946 16.8666 7.81946 18V21.3334C7.81946 21.7334 8.10548 22 8.53444 22ZM9.24934 18C9.24934 17.6 9.53528 17.3334 9.96424 17.3334C10.3932 17.3334 10.6791 17.6 10.6791 18V20.6666H9.24934V18Z" fill="white" fill-opacity="0.7"/>
<path d="M8.53444 30H11.3941C11.8231 30 12.109 29.7334 12.109 29.3334V26C12.109 24.8666 11.1796 24 9.96424 24C8.74884 24 7.81946 24.8666 7.81946 26V29.3334C7.81946 29.7334 8.10548 30 8.53444 30ZM9.24934 26C9.24934 25.6 9.53528 25.3334 9.96424 25.3334C10.3932 25.3334 10.6791 25.6 10.6791 26V28.6666H9.24934V26Z" fill="white" fill-opacity="0.7"/>
</svg>
