<svg width="12" height="12" viewBox="0 0 12 12" fill="none" xmlns="http://www.w3.org/2000/svg">
<g clip-path="url(#clip0_105_3)">
<path d="M6 0C2.6916 0 0 2.6916 0 6C0 9.3084 2.6916 12 6 12C9.3084 12 12 9.3084 12 6C12 2.6916 9.3084 0 6 0ZM10.0472 8.58141C10.0056 8.64639 9.9624 8.7102 9.91761 8.7732C9.91119 8.7822 9.90501 8.79141 9.89841 8.80041C9.8556 8.85999 9.81099 8.91819 9.7656 8.97579C9.7566 8.98719 9.74799 8.9988 9.73881 9.00999C9.69459 9.0648 9.64881 9.1182 9.60219 9.171C9.59139 9.18339 9.58101 9.19599 9.57 9.20841C9.513 9.2718 9.45441 9.33399 9.39399 9.3942C9.33339 9.45459 9.2712 9.51339 9.2076 9.5706C9.19641 9.58059 9.1848 9.59001 9.17361 9.6C9.11961 9.64761 9.0648 9.69459 9.00879 9.7398C8.99859 9.74799 8.98821 9.75579 8.97801 9.7638C8.91939 9.81021 8.85981 9.8556 8.799 9.8994C8.79099 9.90519 8.7828 9.9108 8.77461 9.91659C8.71101 9.9618 8.64639 10.0056 8.5806 10.0476C8.57739 10.0496 8.57421 10.0516 8.571 10.0536L6.96579 7.2738C6.96981 7.2708 6.9732 7.26681 6.9774 7.26381C7.08441 7.1808 7.18041 7.0848 7.26339 6.97779C7.2666 6.9738 7.27041 6.97041 7.27341 6.96621L10.0532 8.57139C10.0514 8.5746 10.0494 8.57799 10.0472 8.58141ZM1.9538 3.41721C1.9946 3.35361 2.037 3.29121 2.0806 3.22959C2.088 3.21921 2.0952 3.20859 2.1028 3.19821C2.1444 3.1404 2.1876 3.084 2.2318 3.02799C2.242 3.015 2.252 3.0018 2.2624 2.9888C2.305 2.936 2.3492 2.8844 2.3942 2.8334C2.4066 2.8194 2.4184 2.8048 2.4308 2.7908C2.4876 2.7276 2.546 2.6658 2.606 2.6058C2.6664 2.5454 2.7284 2.487 2.7918 2.4298C2.8042 2.4186 2.817 2.4082 2.8294 2.3972C2.882 2.3508 2.9354 2.305 2.99 2.261C3.00141 2.2518 3.0132 2.243 3.02481 2.2338C3.0822 2.1884 3.14061 2.1438 3.20001 2.101C3.20859 2.0948 3.21741 2.0888 3.2262 2.0826C3.29001 2.0374 3.3546 1.9936 3.4206 1.9514C3.42339 1.9496 3.426 1.948 3.42879 1.9462L5.03379 4.72599C5.0298 4.72899 5.02641 4.73301 5.02221 4.73601C4.9152 4.81899 4.8192 4.91499 4.73619 5.022C4.73301 5.02599 4.7292 5.02941 4.7262 5.03361L1.9466 3.42879C1.949 3.42501 1.9514 3.4212 1.9538 3.41721ZM7.2636 5.02221C7.18059 4.9152 7.08459 4.8192 6.97761 4.73619C6.97359 4.73301 6.9702 4.7292 6.966 4.7262L8.56941 1.9492C9.16479 2.3282 9.67161 2.835 10.0506 3.43041L7.27359 5.03379C7.27059 5.0298 7.26681 5.02641 7.2636 5.02221ZM5.03379 7.2738L3.4302 10.051C2.8348 9.672 2.328 9.16521 1.949 8.5698L4.7262 6.96621C4.7292 6.9702 4.73319 6.97359 4.73619 6.97779C4.8192 7.0848 4.9152 7.1808 5.02221 7.26381C5.02641 7.26681 5.0298 7.27059 5.03379 7.2738ZM6.99999 6C6.99999 6.55161 6.55161 6.99999 6 6.99999C5.44839 6.99999 5.00001 6.55161 5.00001 6C5.00001 5.44839 5.44839 5.00001 6 5.00001C6.55161 5.00001 6.99999 5.44839 6.99999 6ZM6.6204 4.52541C6.4884 4.46961 6.34701 4.43241 6.20001 4.41399V1.205C6.9156 1.2342 7.60359 1.4202 8.22459 1.7468L6.6204 4.52541ZM5.79999 4.41381C5.65281 4.4322 5.51139 4.4694 5.3796 4.5252L3.7746 1.7452C4.39539 1.4196 5.08359 1.2342 5.79999 1.205V4.41381ZM4.52541 5.3796C4.46961 5.5116 4.43241 5.65299 4.41399 5.79999H1.2048C1.234 5.08359 1.4196 4.39539 1.7454 3.7746L4.52541 5.3796ZM4.41381 6.20001C4.4322 6.34701 4.4694 6.4884 4.5252 6.6204L1.7466 8.2248C1.4202 7.60359 1.2342 6.9156 1.2048 6.20001H4.41381ZM5.3796 7.4748C5.5116 7.5306 5.65299 7.5678 5.79999 7.58619V10.7952C5.0844 10.766 4.39641 10.58 3.7752 10.2534L5.3796 7.4748ZM6.20001 7.58619C6.34719 7.5678 6.48861 7.5306 6.6204 7.4748L8.2254 10.2548C7.60461 10.5804 6.91641 10.766 6.20001 10.7952V7.58619ZM7.47459 6.6204C7.53039 6.4884 7.56759 6.34701 7.58601 6.20001H10.795C10.7658 6.91641 10.5804 7.60461 10.2546 8.22561L7.47459 6.6204ZM7.58619 5.79999C7.5678 5.65281 7.5306 5.5116 7.4748 5.3796L10.2534 3.77541C10.5798 4.39641 10.7658 5.0844 10.7952 5.79999H7.58619Z" fill="white" fill-opacity="0.7"/>
</g>
<defs>
<clipPath id="clip0_105_3">
<rect width="12" height="12" fill="white"/>
</clipPath>
</defs>
</svg>
